<svg width="954" height="655" viewBox="0 0 954 655" fill="none" xmlns="http://www.w3.org/2000/svg">
<rect width="954" height="655" fill="white"/>
<rect x="176" y="158" width="603" height="273" rx="20" fill="#31BFDE"/>
<path d="M316.61 466.816C301.462 479.594 293.888 485.983 286.876 485.054C284.382 484.723 282.001 483.809 279.926 482.386C274.094 478.385 272.74 468.569 270.033 448.937L264.485 408.698C261.938 390.224 260.664 380.987 264.928 375.626C266.45 373.713 268.39 372.174 270.599 371.128C276.789 368.195 285.494 371.536 302.905 378.22L339.501 392.267C356.911 398.951 365.616 402.292 368.254 408.614C369.195 410.87 369.607 413.311 369.458 415.751C369.04 422.588 361.912 428.6 347.658 440.625L316.61 466.816Z" fill="#31BFDE"/>
<path d="M334.385 286.08C333.489 286.848 332.081 287.52 330.161 288.096C328.305 288.672 326.257 288.96 324.017 288.96C321.329 288.96 319.025 288.576 317.105 287.808C315.185 286.976 313.873 285.856 313.169 284.448C312.465 282.976 311.601 281.088 310.577 278.784C309.553 276.416 308.465 273.792 307.313 270.912C306.225 268.032 305.073 264.992 303.857 261.792C302.705 258.528 301.585 255.232 300.497 251.904C299.409 248.576 298.385 245.312 297.425 242.112C296.465 238.912 295.633 235.904 294.929 233.088C295.825 232.192 297.105 231.392 298.769 230.688C300.497 229.92 302.321 229.536 304.241 229.536C306.609 229.536 308.529 230.048 310.001 231.072C311.537 232.032 312.657 233.856 313.361 236.544C315.089 242.816 316.817 248.832 318.545 254.592C320.337 260.288 322.193 266.24 324.113 272.448H324.689C326.417 266.432 328.177 259.872 329.969 252.768C331.825 245.664 333.585 238.592 335.249 231.552C336.401 230.976 337.617 230.496 338.897 230.112C340.241 229.728 341.745 229.536 343.409 229.536C345.777 229.536 347.793 230.08 349.457 231.168C351.121 232.192 351.953 233.92 351.953 236.352C351.953 237.76 351.601 239.808 350.897 242.496C350.257 245.184 349.393 248.224 348.305 251.616C347.281 254.944 346.097 258.432 344.753 262.08C343.473 265.728 342.161 269.184 340.817 272.448C339.537 275.648 338.321 278.496 337.169 280.992C336.017 283.424 335.089 285.12 334.385 286.08ZM404.233 264.672C404.233 268.64 403.625 272.192 402.409 275.328C401.193 278.4 399.465 280.992 397.225 283.104C395.049 285.216 392.425 286.816 389.353 287.904C386.281 288.992 382.857 289.536 379.081 289.536C375.305 289.536 371.881 288.96 368.809 287.808C365.737 286.656 363.081 285.024 360.841 282.912C358.665 280.736 356.969 278.112 355.753 275.04C354.537 271.968 353.929 268.512 353.929 264.672C353.929 260.896 354.537 257.472 355.753 254.4C356.969 251.328 358.665 248.736 360.841 246.624C363.081 244.448 365.737 242.784 368.809 241.632C371.881 240.48 375.305 239.904 379.081 239.904C382.857 239.904 386.281 240.512 389.353 241.728C392.425 242.88 395.049 244.544 397.225 246.72C399.465 248.832 401.193 251.424 402.409 254.496C403.625 257.568 404.233 260.96 404.233 264.672ZM370.633 264.672C370.633 268.576 371.369 271.584 372.841 273.696C374.377 275.744 376.489 276.768 379.177 276.768C381.865 276.768 383.913 275.712 385.321 273.6C386.793 271.488 387.529 268.512 387.529 264.672C387.529 260.832 386.793 257.888 385.321 255.84C383.849 253.728 381.769 252.672 379.081 252.672C376.393 252.672 374.313 253.728 372.841 255.84C371.369 257.888 370.633 260.832 370.633 264.672ZM438.499 252.768C436.899 252.768 435.363 253.024 433.891 253.536C432.483 254.048 431.235 254.816 430.147 255.84C429.123 256.8 428.291 258.016 427.651 259.488C427.011 260.96 426.691 262.688 426.691 264.672C426.691 268.64 427.811 271.616 430.051 273.6C432.355 275.584 435.139 276.576 438.403 276.576C440.323 276.576 441.987 276.352 443.395 275.904C444.803 275.456 446.051 274.976 447.139 274.464C448.419 275.36 449.379 276.352 450.019 277.44C450.659 278.464 450.979 279.712 450.979 281.184C450.979 283.808 449.731 285.856 447.235 287.328C444.739 288.736 441.283 289.44 436.867 289.44C432.835 289.44 429.187 288.864 425.923 287.712C422.659 286.496 419.843 284.832 417.475 282.72C415.171 280.544 413.379 277.952 412.099 274.944C410.819 271.936 410.179 268.608 410.179 264.96C410.179 260.736 410.851 257.056 412.195 253.92C413.603 250.72 415.491 248.096 417.859 246.048C420.227 244 422.947 242.464 426.019 241.44C429.155 240.416 432.451 239.904 435.907 239.904C440.515 239.904 444.067 240.736 446.563 242.4C449.059 244.064 450.307 246.208 450.307 248.832C450.307 250.048 450.019 251.2 449.443 252.288C448.867 253.312 448.195 254.208 447.427 254.976C446.339 254.464 445.027 253.984 443.491 253.536C441.955 253.024 440.291 252.768 438.499 252.768ZM479.132 277.632C480.22 277.632 481.404 277.536 482.684 277.344C484.028 277.088 485.02 276.768 485.66 276.384V268.704L478.748 269.28C476.956 269.408 475.484 269.792 474.332 270.432C473.18 271.072 472.604 272.032 472.604 273.312C472.604 274.592 473.084 275.648 474.044 276.48C475.068 277.248 476.764 277.632 479.132 277.632ZM478.364 239.904C481.82 239.904 484.956 240.256 487.772 240.96C490.652 241.664 493.084 242.752 495.068 244.224C497.116 245.632 498.684 247.456 499.772 249.696C500.86 251.872 501.404 254.464 501.404 257.472V278.976C501.404 280.64 500.924 282.016 499.964 283.104C499.068 284.128 497.98 285.024 496.7 285.792C492.54 288.288 486.684 289.536 479.132 289.536C475.74 289.536 472.668 289.216 469.916 288.576C467.228 287.936 464.892 286.976 462.908 285.696C460.988 284.416 459.484 282.784 458.396 280.8C457.372 278.816 456.86 276.512 456.86 273.888C456.86 269.472 458.172 266.08 460.796 263.712C463.42 261.344 467.484 259.872 472.988 259.296L485.564 257.952V257.28C485.564 255.424 484.732 254.112 483.068 253.344C481.468 252.512 479.132 252.096 476.06 252.096C473.628 252.096 471.26 252.352 468.956 252.864C466.652 253.376 464.572 254.016 462.716 254.784C461.884 254.208 461.18 253.344 460.604 252.192C460.028 250.976 459.74 249.728 459.74 248.448C459.74 246.784 460.124 245.472 460.892 244.512C461.724 243.488 462.972 242.624 464.636 241.92C466.492 241.216 468.668 240.704 471.164 240.384C473.724 240.064 476.124 239.904 478.364 239.904ZM511.575 225.504C512.215 225.312 513.239 225.12 514.647 224.928C516.055 224.672 517.495 224.544 518.967 224.544C520.375 224.544 521.623 224.64 522.711 224.832C523.863 225.024 524.823 225.408 525.591 225.984C526.359 226.56 526.935 227.36 527.319 228.384C527.703 229.344 527.895 230.624 527.895 232.224V241.632C529.495 240.992 530.999 240.544 532.407 240.288C533.879 240.032 535.479 239.904 537.207 239.904C540.279 239.904 543.191 240.448 545.943 241.536C548.695 242.624 551.127 244.224 553.239 246.336C555.351 248.384 557.015 250.944 558.231 254.016C559.447 257.088 560.055 260.64 560.055 264.672C560.055 268.832 559.415 272.48 558.135 275.616C556.919 278.688 555.191 281.248 552.951 283.296C550.711 285.344 547.959 286.912 544.695 288C541.495 289.024 537.943 289.536 534.039 289.536C529.815 289.536 526.231 289.024 523.287 288C520.343 287.04 517.847 285.824 515.799 284.352C512.983 282.368 511.575 279.808 511.575 276.672V225.504ZM534.039 276.672C536.983 276.672 539.255 275.68 540.855 273.696C542.519 271.648 543.351 268.64 543.351 264.672C543.351 260.64 542.519 257.632 540.855 255.648C539.191 253.664 536.951 252.672 534.135 252.672C532.855 252.672 531.735 252.8 530.775 253.056C529.879 253.312 528.887 253.696 527.799 254.208V275.136C528.503 275.584 529.335 275.968 530.295 276.288C531.319 276.544 532.567 276.672 534.039 276.672ZM567.72 270.144C567.272 269.44 566.856 268.512 566.472 267.36C566.088 266.208 565.896 264.992 565.896 263.712C565.896 261.344 566.44 259.648 567.528 258.624C568.616 257.536 570.024 256.992 571.752 256.992H592.296C592.68 257.696 593.064 258.624 593.448 259.776C593.896 260.928 594.12 262.144 594.12 263.424C594.12 265.792 593.576 267.52 592.488 268.608C591.4 269.632 589.992 270.144 588.264 270.144H567.72ZM654.745 266.496C654.745 269.952 654.137 273.12 652.921 276C651.769 278.816 650.073 281.248 647.833 283.296C645.593 285.28 642.873 286.816 639.673 287.904C636.473 288.992 632.857 289.536 628.825 289.536C624.793 289.536 621.177 288.992 617.977 287.904C614.777 286.816 612.057 285.28 609.817 283.296C607.577 281.248 605.849 278.816 604.633 276C603.481 273.12 602.905 269.952 602.905 266.496V229.824C603.609 229.696 604.729 229.536 606.265 229.344C607.801 229.088 609.273 228.96 610.681 228.96C612.153 228.96 613.433 229.088 614.521 229.344C615.673 229.536 616.633 229.92 617.401 230.496C618.169 231.072 618.745 231.872 619.129 232.896C619.513 233.92 619.705 235.264 619.705 236.928V266.208C619.705 269.28 620.537 271.68 622.201 273.408C623.929 275.136 626.137 276 628.825 276C631.577 276 633.785 275.136 635.449 273.408C637.113 271.68 637.945 269.28 637.945 266.208V229.824C638.649 229.696 639.769 229.536 641.305 229.344C642.841 229.088 644.313 228.96 645.721 228.96C647.193 228.96 648.473 229.088 649.561 229.344C650.713 229.536 651.673 229.92 652.441 230.496C653.209 231.072 653.785 231.872 654.169 232.896C654.553 233.92 654.745 235.264 654.745 236.928V266.496Z" fill="white"/>
<path d="M318.968 346.072C318.28 346.072 317.736 345.872 317.336 345.472C316.936 345.072 316.736 344.528 316.736 343.84V331.432C316.912 331.4 317.192 331.36 317.576 331.312C317.96 331.248 318.328 331.216 318.68 331.216C319.048 331.216 319.368 331.248 319.64 331.312C319.928 331.36 320.168 331.456 320.36 331.6C320.552 331.744 320.696 331.944 320.792 332.2C320.888 332.456 320.936 332.792 320.936 333.208V342.688H326.432C326.544 342.864 326.648 343.104 326.744 343.408C326.84 343.696 326.888 344 326.888 344.32C326.888 344.96 326.752 345.416 326.48 345.688C326.208 345.944 325.848 346.072 325.4 346.072H318.968ZM333.72 343.408C333.992 343.408 334.288 343.384 334.608 343.336C334.944 343.272 335.192 343.192 335.352 343.096V341.176L333.624 341.32C333.176 341.352 332.808 341.448 332.52 341.608C332.232 341.768 332.088 342.008 332.088 342.328C332.088 342.648 332.208 342.912 332.448 343.12C332.704 343.312 333.128 343.408 333.72 343.408ZM333.528 333.976C334.392 333.976 335.176 334.064 335.88 334.24C336.6 334.416 337.208 334.688 337.704 335.056C338.216 335.408 338.608 335.864 338.88 336.424C339.152 336.968 339.288 337.616 339.288 338.368V343.744C339.288 344.16 339.168 344.504 338.928 344.776C338.704 345.032 338.432 345.256 338.112 345.448C337.072 346.072 335.608 346.384 333.72 346.384C332.872 346.384 332.104 346.304 331.416 346.144C330.744 345.984 330.16 345.744 329.664 345.424C329.184 345.104 328.808 344.696 328.536 344.2C328.28 343.704 328.152 343.128 328.152 342.472C328.152 341.368 328.48 340.52 329.136 339.928C329.792 339.336 330.808 338.968 332.184 338.824L335.328 338.488V338.32C335.328 337.856 335.12 337.528 334.704 337.336C334.304 337.128 333.72 337.024 332.952 337.024C332.344 337.024 331.752 337.088 331.176 337.216C330.6 337.344 330.08 337.504 329.616 337.696C329.408 337.552 329.232 337.336 329.088 337.048C328.944 336.744 328.872 336.432 328.872 336.112C328.872 335.696 328.968 335.368 329.16 335.128C329.368 334.872 329.68 334.656 330.096 334.48C330.56 334.304 331.104 334.176 331.728 334.096C332.368 334.016 332.968 333.976 333.528 333.976ZM349.175 338.608C349.175 338.112 349.031 337.752 348.743 337.528C348.471 337.288 348.095 337.168 347.615 337.168C347.295 337.168 346.975 337.208 346.655 337.288C346.351 337.368 346.087 337.488 345.863 337.648V345.976C345.703 346.024 345.447 346.072 345.095 346.12C344.759 346.168 344.407 346.192 344.039 346.192C343.687 346.192 343.367 346.168 343.079 346.12C342.807 346.072 342.575 345.976 342.383 345.832C342.191 345.688 342.039 345.496 341.927 345.256C341.831 345 341.783 344.672 341.783 344.272V337.072C341.783 336.64 341.871 336.288 342.047 336.016C342.239 335.744 342.495 335.496 342.815 335.272C343.359 334.888 344.039 334.576 344.855 334.336C345.687 334.096 346.607 333.976 347.615 333.976C349.423 333.976 350.815 334.376 351.791 335.176C352.767 335.96 353.255 337.056 353.255 338.464V345.976C353.095 346.024 352.839 346.072 352.487 346.12C352.151 346.168 351.799 346.192 351.431 346.192C351.079 346.192 350.759 346.168 350.471 346.12C350.199 346.072 349.967 345.976 349.775 345.832C349.583 345.688 349.431 345.496 349.319 345.256C349.223 345 349.175 344.672 349.175 344.272V338.608ZM361.463 333.976C362.375 333.976 363.199 334.096 363.935 334.336C364.687 334.56 365.319 334.856 365.831 335.224C366.151 335.448 366.399 335.696 366.575 335.968C366.767 336.24 366.863 336.592 366.863 337.024V345.424C366.863 346.272 366.703 347 366.383 347.608C366.063 348.232 365.623 348.744 365.063 349.144C364.519 349.56 363.871 349.864 363.119 350.056C362.383 350.248 361.591 350.344 360.743 350.344C359.287 350.344 358.143 350.144 357.311 349.744C356.479 349.36 356.063 348.728 356.063 347.848C356.063 347.48 356.135 347.152 356.279 346.864C356.439 346.592 356.615 346.384 356.807 346.24C357.271 346.496 357.791 346.712 358.367 346.888C358.959 347.064 359.567 347.152 360.191 347.152C361.055 347.152 361.743 347.008 362.255 346.72C362.767 346.432 363.023 345.968 363.023 345.328V344.944C362.367 345.232 361.567 345.376 360.623 345.376C359.903 345.376 359.215 345.272 358.559 345.064C357.919 344.84 357.351 344.504 356.855 344.056C356.375 343.592 355.983 343 355.679 342.28C355.391 341.56 355.247 340.704 355.247 339.712C355.247 338.736 355.399 337.888 355.703 337.168C356.023 336.448 356.455 335.856 356.999 335.392C357.559 334.912 358.215 334.56 358.967 334.336C359.735 334.096 360.567 333.976 361.463 333.976ZM362.951 337.456C362.839 337.392 362.671 337.328 362.447 337.264C362.239 337.2 361.975 337.168 361.655 337.168C360.871 337.168 360.279 337.392 359.879 337.84C359.495 338.272 359.303 338.896 359.303 339.712C359.303 340.64 359.495 341.312 359.879 341.728C360.279 342.128 360.783 342.328 361.391 342.328C362.047 342.328 362.567 342.176 362.951 341.872V337.456ZM369.393 334.504C369.553 334.456 369.801 334.408 370.137 334.36C370.489 334.312 370.849 334.288 371.217 334.288C371.569 334.288 371.881 334.312 372.153 334.36C372.441 334.408 372.681 334.504 372.873 334.648C373.065 334.792 373.209 334.992 373.305 335.248C373.417 335.488 373.473 335.808 373.473 336.208V341.368C373.473 342.024 373.633 342.496 373.953 342.784C374.273 343.056 374.737 343.192 375.345 343.192C375.713 343.192 376.009 343.16 376.233 343.096C376.473 343.032 376.657 342.968 376.785 342.904V334.504C376.945 334.456 377.193 334.408 377.529 334.36C377.881 334.312 378.241 334.288 378.609 334.288C378.961 334.288 379.273 334.312 379.545 334.36C379.833 334.408 380.073 334.504 380.265 334.648C380.457 334.792 380.601 334.992 380.697 335.248C380.809 335.488 380.865 335.808 380.865 336.208V343.504C380.865 344.304 380.529 344.904 379.857 345.304C379.297 345.656 378.625 345.92 377.841 346.096C377.073 346.288 376.233 346.384 375.321 346.384C374.457 346.384 373.657 346.288 372.921 346.096C372.201 345.904 371.577 345.608 371.049 345.208C370.521 344.808 370.113 344.296 369.825 343.672C369.537 343.032 369.393 342.264 369.393 341.368V334.504ZM388.353 343.408C388.625 343.408 388.921 343.384 389.241 343.336C389.577 343.272 389.825 343.192 389.985 343.096V341.176L388.257 341.32C387.809 341.352 387.441 341.448 387.153 341.608C386.865 341.768 386.721 342.008 386.721 342.328C386.721 342.648 386.841 342.912 387.081 343.12C387.337 343.312 387.761 343.408 388.353 343.408ZM388.161 333.976C389.025 333.976 389.809 334.064 390.513 334.24C391.233 334.416 391.841 334.688 392.337 335.056C392.849 335.408 393.241 335.864 393.513 336.424C393.785 336.968 393.921 337.616 393.921 338.368V343.744C393.921 344.16 393.801 344.504 393.561 344.776C393.337 345.032 393.065 345.256 392.745 345.448C391.705 346.072 390.241 346.384 388.353 346.384C387.505 346.384 386.737 346.304 386.049 346.144C385.377 345.984 384.793 345.744 384.297 345.424C383.817 345.104 383.441 344.696 383.169 344.2C382.913 343.704 382.785 343.128 382.785 342.472C382.785 341.368 383.113 340.52 383.769 339.928C384.425 339.336 385.441 338.968 386.817 338.824L389.961 338.488V338.32C389.961 337.856 389.753 337.528 389.337 337.336C388.937 337.128 388.353 337.024 387.585 337.024C386.977 337.024 386.385 337.088 385.809 337.216C385.233 337.344 384.713 337.504 384.249 337.696C384.041 337.552 383.865 337.336 383.721 337.048C383.577 336.744 383.505 336.432 383.505 336.112C383.505 335.696 383.601 335.368 383.793 335.128C384.001 334.872 384.313 334.656 384.729 334.48C385.193 334.304 385.737 334.176 386.361 334.096C387.001 334.016 387.601 333.976 388.161 333.976ZM402.104 333.976C403.016 333.976 403.84 334.096 404.576 334.336C405.328 334.56 405.96 334.856 406.472 335.224C406.792 335.448 407.04 335.696 407.216 335.968C407.408 336.24 407.504 336.592 407.504 337.024V345.424C407.504 346.272 407.344 347 407.024 347.608C406.704 348.232 406.264 348.744 405.704 349.144C405.16 349.56 404.512 349.864 403.76 350.056C403.024 350.248 402.232 350.344 401.384 350.344C399.928 350.344 398.784 350.144 397.952 349.744C397.12 349.36 396.704 348.728 396.704 347.848C396.704 347.48 396.776 347.152 396.92 346.864C397.08 346.592 397.256 346.384 397.448 346.24C397.912 346.496 398.432 346.712 399.008 346.888C399.6 347.064 400.208 347.152 400.832 347.152C401.696 347.152 402.384 347.008 402.896 346.72C403.408 346.432 403.664 345.968 403.664 345.328V344.944C403.008 345.232 402.208 345.376 401.264 345.376C400.544 345.376 399.856 345.272 399.2 345.064C398.56 344.84 397.992 344.504 397.496 344.056C397.016 343.592 396.624 343 396.32 342.28C396.032 341.56 395.888 340.704 395.888 339.712C395.888 338.736 396.04 337.888 396.344 337.168C396.664 336.448 397.096 335.856 397.64 335.392C398.2 334.912 398.856 334.56 399.608 334.336C400.376 334.096 401.208 333.976 402.104 333.976ZM403.592 337.456C403.48 337.392 403.312 337.328 403.088 337.264C402.88 337.2 402.616 337.168 402.296 337.168C401.512 337.168 400.92 337.392 400.52 337.84C400.136 338.272 399.944 338.896 399.944 339.712C399.944 340.64 400.136 341.312 400.52 341.728C400.92 342.128 401.424 342.328 402.032 342.328C402.688 342.328 403.208 342.176 403.592 341.872V337.456ZM416.201 346.384C415.257 346.384 414.377 346.256 413.561 346C412.761 345.728 412.057 345.328 411.449 344.8C410.857 344.272 410.385 343.608 410.033 342.808C409.697 342.008 409.529 341.072 409.529 340C409.529 338.944 409.697 338.04 410.033 337.288C410.385 336.52 410.841 335.896 411.401 335.416C411.961 334.92 412.601 334.56 413.321 334.336C414.041 334.096 414.777 333.976 415.529 333.976C416.377 333.976 417.145 334.104 417.833 334.36C418.537 334.616 419.137 334.968 419.633 335.416C420.145 335.864 420.537 336.4 420.809 337.024C421.097 337.648 421.241 338.328 421.241 339.064C421.241 339.608 421.089 340.024 420.785 340.312C420.481 340.6 420.057 340.784 419.513 340.864L413.585 341.752C413.761 342.28 414.121 342.68 414.665 342.952C415.209 343.208 415.833 343.336 416.537 343.336C417.193 343.336 417.809 343.256 418.385 343.096C418.977 342.92 419.457 342.72 419.825 342.496C420.081 342.656 420.297 342.88 420.473 343.168C420.649 343.456 420.737 343.76 420.737 344.08C420.737 344.8 420.401 345.336 419.729 345.688C419.217 345.96 418.641 346.144 418.001 346.24C417.361 346.336 416.761 346.384 416.201 346.384ZM415.529 336.952C415.145 336.952 414.809 337.016 414.521 337.144C414.249 337.272 414.025 337.44 413.849 337.648C413.673 337.84 413.537 338.064 413.441 338.32C413.361 338.56 413.313 338.808 413.297 339.064L417.401 338.392C417.353 338.072 417.177 337.752 416.873 337.432C416.569 337.112 416.121 336.952 415.529 336.952ZM432.162 345.976C431.986 346.008 431.722 346.048 431.37 346.096C431.034 346.16 430.69 346.192 430.338 346.192C429.986 346.192 429.666 346.168 429.378 346.12C429.106 346.072 428.874 345.976 428.682 345.832C428.49 345.688 428.338 345.496 428.226 345.256C428.13 345 428.082 344.672 428.082 344.272V330.352C428.258 330.32 428.514 330.28 428.85 330.232C429.202 330.168 429.554 330.136 429.906 330.136C430.258 330.136 430.57 330.16 430.842 330.208C431.13 330.256 431.37 330.352 431.562 330.496C431.754 330.64 431.898 330.84 431.994 331.096C432.106 331.336 432.162 331.656 432.162 332.056V345.976ZM440.904 346.384C439.96 346.384 439.08 346.256 438.264 346C437.464 345.728 436.76 345.328 436.152 344.8C435.56 344.272 435.088 343.608 434.736 342.808C434.4 342.008 434.232 341.072 434.232 340C434.232 338.944 434.4 338.04 434.736 337.288C435.088 336.52 435.544 335.896 436.104 335.416C436.664 334.92 437.304 334.56 438.024 334.336C438.744 334.096 439.48 333.976 440.232 333.976C441.08 333.976 441.848 334.104 442.536 334.36C443.24 334.616 443.84 334.968 444.336 335.416C444.848 335.864 445.24 336.4 445.512 337.024C445.8 337.648 445.944 338.328 445.944 339.064C445.944 339.608 445.792 340.024 445.488 340.312C445.184 340.6 444.76 340.784 444.216 340.864L438.288 341.752C438.464 342.28 438.824 342.68 439.368 342.952C439.912 343.208 440.536 343.336 441.24 343.336C441.896 343.336 442.512 343.256 443.088 343.096C443.68 342.92 444.16 342.72 444.528 342.496C444.784 342.656 445 342.88 445.176 343.168C445.352 343.456 445.44 343.76 445.44 344.08C445.44 344.8 445.104 345.336 444.432 345.688C443.92 345.96 443.344 346.144 442.704 346.24C442.064 346.336 441.464 346.384 440.904 346.384ZM440.232 336.952C439.848 336.952 439.512 337.016 439.224 337.144C438.952 337.272 438.728 337.44 438.552 337.648C438.376 337.84 438.24 338.064 438.144 338.32C438.064 338.56 438.016 338.808 438 339.064L442.104 338.392C442.056 338.072 441.88 337.752 441.576 337.432C441.272 337.112 440.824 336.952 440.232 336.952ZM452.9 343.408C453.172 343.408 453.468 343.384 453.788 343.336C454.124 343.272 454.372 343.192 454.532 343.096V341.176L452.804 341.32C452.356 341.352 451.988 341.448 451.7 341.608C451.412 341.768 451.268 342.008 451.268 342.328C451.268 342.648 451.388 342.912 451.628 343.12C451.884 343.312 452.308 343.408 452.9 343.408ZM452.708 333.976C453.572 333.976 454.356 334.064 455.06 334.24C455.78 334.416 456.388 334.688 456.884 335.056C457.396 335.408 457.788 335.864 458.06 336.424C458.332 336.968 458.468 337.616 458.468 338.368V343.744C458.468 344.16 458.348 344.504 458.108 344.776C457.884 345.032 457.612 345.256 457.292 345.448C456.252 346.072 454.788 346.384 452.9 346.384C452.052 346.384 451.284 346.304 450.596 346.144C449.924 345.984 449.34 345.744 448.844 345.424C448.364 345.104 447.988 344.696 447.716 344.2C447.46 343.704 447.332 343.128 447.332 342.472C447.332 341.368 447.66 340.52 448.316 339.928C448.972 339.336 449.988 338.968 451.364 338.824L454.508 338.488V338.32C454.508 337.856 454.3 337.528 453.884 337.336C453.484 337.128 452.9 337.024 452.132 337.024C451.524 337.024 450.932 337.088 450.356 337.216C449.78 337.344 449.26 337.504 448.796 337.696C448.588 337.552 448.412 337.336 448.268 337.048C448.124 336.744 448.052 336.432 448.052 336.112C448.052 335.696 448.148 335.368 448.34 335.128C448.548 334.872 448.86 334.656 449.276 334.48C449.74 334.304 450.284 334.176 450.908 334.096C451.548 334.016 452.148 333.976 452.708 333.976ZM465.043 345.976C464.883 346.024 464.627 346.072 464.275 346.12C463.939 346.168 463.587 346.192 463.219 346.192C462.867 346.192 462.547 346.168 462.259 346.12C461.987 346.072 461.755 345.976 461.563 345.832C461.371 345.688 461.219 345.496 461.107 345.256C461.011 345 460.963 344.672 460.963 344.272V337.072C460.963 336.704 461.027 336.392 461.155 336.136C461.299 335.864 461.499 335.624 461.755 335.416C462.011 335.208 462.323 335.024 462.691 334.864C463.075 334.688 463.483 334.536 463.915 334.408C464.347 334.28 464.795 334.184 465.259 334.12C465.723 334.04 466.187 334 466.651 334C467.419 334 468.027 334.152 468.475 334.456C468.923 334.744 469.147 335.224 469.147 335.896C469.147 336.12 469.115 336.344 469.051 336.568C468.987 336.776 468.907 336.968 468.811 337.144C468.475 337.144 468.131 337.16 467.779 337.192C467.427 337.224 467.083 337.272 466.747 337.336C466.411 337.4 466.091 337.472 465.787 337.552C465.499 337.616 465.251 337.696 465.043 337.792V345.976ZM477.988 338.608C477.988 338.112 477.844 337.752 477.556 337.528C477.284 337.288 476.908 337.168 476.428 337.168C476.108 337.168 475.788 337.208 475.468 337.288C475.164 337.368 474.9 337.488 474.676 337.648V345.976C474.516 346.024 474.26 346.072 473.908 346.12C473.572 346.168 473.22 346.192 472.852 346.192C472.5 346.192 472.18 346.168 471.892 346.12C471.62 346.072 471.388 345.976 471.196 345.832C471.004 345.688 470.852 345.496 470.74 345.256C470.644 345 470.596 344.672 470.596 344.272V337.072C470.596 336.64 470.684 336.288 470.86 336.016C471.052 335.744 471.308 335.496 471.628 335.272C472.172 334.888 472.852 334.576 473.668 334.336C474.5 334.096 475.42 333.976 476.428 333.976C478.236 333.976 479.628 334.376 480.604 335.176C481.58 335.96 482.068 337.056 482.068 338.464V345.976C481.908 346.024 481.652 346.072 481.3 346.12C480.964 346.168 480.612 346.192 480.244 346.192C479.892 346.192 479.572 346.168 479.284 346.12C479.012 346.072 478.78 345.976 478.588 345.832C478.396 345.688 478.244 345.496 478.132 345.256C478.036 345 477.988 344.672 477.988 344.272V338.608ZM484.492 331.096C484.492 330.488 484.692 329.976 485.092 329.56C485.508 329.144 486.052 328.936 486.724 328.936C487.396 328.936 487.932 329.144 488.332 329.56C488.748 329.976 488.956 330.488 488.956 331.096C488.956 331.704 488.748 332.216 488.332 332.632C487.932 333.048 487.396 333.256 486.724 333.256C486.052 333.256 485.508 333.048 485.092 332.632C484.692 332.216 484.492 331.704 484.492 331.096ZM488.764 345.976C488.588 346.008 488.324 346.048 487.972 346.096C487.636 346.16 487.292 346.192 486.94 346.192C486.588 346.192 486.268 346.168 485.98 346.12C485.708 346.072 485.476 345.976 485.284 345.832C485.092 345.688 484.94 345.496 484.828 345.256C484.732 345 484.684 344.672 484.684 344.272V334.504C484.86 334.472 485.116 334.432 485.452 334.384C485.804 334.32 486.156 334.288 486.508 334.288C486.86 334.288 487.172 334.312 487.444 334.36C487.732 334.408 487.972 334.504 488.164 334.648C488.356 334.792 488.5 334.992 488.596 335.248C488.708 335.488 488.764 335.808 488.764 336.208V345.976ZM498.753 338.608C498.753 338.112 498.609 337.752 498.321 337.528C498.049 337.288 497.673 337.168 497.193 337.168C496.873 337.168 496.553 337.208 496.233 337.288C495.929 337.368 495.665 337.488 495.441 337.648V345.976C495.281 346.024 495.025 346.072 494.673 346.12C494.337 346.168 493.985 346.192 493.617 346.192C493.265 346.192 492.945 346.168 492.657 346.12C492.385 346.072 492.153 345.976 491.961 345.832C491.769 345.688 491.617 345.496 491.505 345.256C491.409 345 491.361 344.672 491.361 344.272V337.072C491.361 336.64 491.449 336.288 491.625 336.016C491.817 335.744 492.073 335.496 492.393 335.272C492.937 334.888 493.617 334.576 494.433 334.336C495.265 334.096 496.185 333.976 497.193 333.976C499.001 333.976 500.393 334.376 501.369 335.176C502.345 335.96 502.833 337.056 502.833 338.464V345.976C502.673 346.024 502.417 346.072 502.065 346.12C501.729 346.168 501.377 346.192 501.009 346.192C500.657 346.192 500.337 346.168 500.049 346.12C499.777 346.072 499.545 345.976 499.353 345.832C499.161 345.688 499.009 345.496 498.897 345.256C498.801 345 498.753 344.672 498.753 344.272V338.608ZM511.041 333.976C511.953 333.976 512.777 334.096 513.513 334.336C514.265 334.56 514.897 334.856 515.409 335.224C515.729 335.448 515.977 335.696 516.153 335.968C516.345 336.24 516.441 336.592 516.441 337.024V345.424C516.441 346.272 516.281 347 515.961 347.608C515.641 348.232 515.201 348.744 514.641 349.144C514.097 349.56 513.449 349.864 512.697 350.056C511.961 350.248 511.169 350.344 510.321 350.344C508.865 350.344 507.721 350.144 506.889 349.744C506.057 349.36 505.641 348.728 505.641 347.848C505.641 347.48 505.713 347.152 505.857 346.864C506.017 346.592 506.193 346.384 506.385 346.24C506.849 346.496 507.369 346.712 507.945 346.888C508.537 347.064 509.145 347.152 509.769 347.152C510.633 347.152 511.321 347.008 511.833 346.72C512.345 346.432 512.601 345.968 512.601 345.328V344.944C511.945 345.232 511.145 345.376 510.201 345.376C509.481 345.376 508.793 345.272 508.137 345.064C507.497 344.84 506.929 344.504 506.433 344.056C505.953 343.592 505.561 343 505.257 342.28C504.969 341.56 504.825 340.704 504.825 339.712C504.825 338.736 504.977 337.888 505.281 337.168C505.601 336.448 506.033 335.856 506.577 335.392C507.137 334.912 507.793 334.56 508.545 334.336C509.313 334.096 510.145 333.976 511.041 333.976ZM512.529 337.456C512.417 337.392 512.249 337.328 512.025 337.264C511.817 337.2 511.553 337.168 511.233 337.168C510.449 337.168 509.857 337.392 509.457 337.84C509.073 338.272 508.881 338.896 508.881 339.712C508.881 340.64 509.073 341.312 509.457 341.728C509.857 342.128 510.361 342.328 510.969 342.328C511.625 342.328 512.145 342.176 512.529 341.872V337.456ZM529.367 333.976C530.023 333.976 530.663 334.072 531.287 334.264C531.927 334.44 532.479 334.712 532.943 335.08C533.423 334.76 533.959 334.496 534.551 334.288C535.159 334.08 535.887 333.976 536.735 333.976C537.343 333.976 537.935 334.056 538.511 334.216C539.103 334.376 539.623 334.632 540.071 334.984C540.535 335.32 540.903 335.776 541.175 336.352C541.447 336.912 541.583 337.6 541.583 338.416V345.976C541.423 346.024 541.167 346.072 540.815 346.12C540.479 346.168 540.127 346.192 539.759 346.192C539.407 346.192 539.087 346.168 538.799 346.12C538.527 346.072 538.295 345.976 538.103 345.832C537.911 345.688 537.759 345.496 537.647 345.256C537.551 345 537.503 344.672 537.503 344.272V338.536C537.503 338.056 537.367 337.712 537.095 337.504C536.823 337.28 536.455 337.168 535.991 337.168C535.767 337.168 535.527 337.224 535.271 337.336C535.015 337.432 534.823 337.536 534.695 337.648C534.711 337.712 534.719 337.776 534.719 337.84C534.719 337.888 534.719 337.936 534.719 337.984V345.976C534.543 346.024 534.279 346.072 533.927 346.12C533.591 346.168 533.247 346.192 532.895 346.192C532.543 346.192 532.223 346.168 531.935 346.12C531.663 346.072 531.431 345.976 531.239 345.832C531.047 345.688 530.895 345.496 530.783 345.256C530.687 345 530.639 344.672 530.639 344.272V338.536C530.639 338.056 530.487 337.712 530.183 337.504C529.895 337.28 529.543 337.168 529.127 337.168C528.839 337.168 528.591 337.216 528.383 337.312C528.175 337.392 527.999 337.472 527.855 337.552V345.976C527.695 346.024 527.439 346.072 527.087 346.12C526.751 346.168 526.399 346.192 526.031 346.192C525.679 346.192 525.359 346.168 525.071 346.12C524.799 346.072 524.567 345.976 524.375 345.832C524.183 345.688 524.031 345.496 523.919 345.256C523.823 345 523.775 344.672 523.775 344.272V337.024C523.775 336.592 523.863 336.248 524.039 335.992C524.231 335.736 524.487 335.496 524.807 335.272C525.351 334.888 526.023 334.576 526.823 334.336C527.639 334.096 528.487 333.976 529.367 333.976ZM549.064 343.408C549.336 343.408 549.632 343.384 549.952 343.336C550.288 343.272 550.536 343.192 550.696 343.096V341.176L548.968 341.32C548.52 341.352 548.152 341.448 547.864 341.608C547.576 341.768 547.432 342.008 547.432 342.328C547.432 342.648 547.552 342.912 547.792 343.12C548.048 343.312 548.472 343.408 549.064 343.408ZM548.872 333.976C549.736 333.976 550.52 334.064 551.224 334.24C551.944 334.416 552.552 334.688 553.048 335.056C553.56 335.408 553.952 335.864 554.224 336.424C554.496 336.968 554.632 337.616 554.632 338.368V343.744C554.632 344.16 554.512 344.504 554.272 344.776C554.048 345.032 553.776 345.256 553.456 345.448C552.416 346.072 550.952 346.384 549.064 346.384C548.216 346.384 547.448 346.304 546.76 346.144C546.088 345.984 545.504 345.744 545.008 345.424C544.528 345.104 544.152 344.696 543.88 344.2C543.624 343.704 543.496 343.128 543.496 342.472C543.496 341.368 543.824 340.52 544.48 339.928C545.136 339.336 546.152 338.968 547.528 338.824L550.672 338.488V338.32C550.672 337.856 550.464 337.528 550.048 337.336C549.648 337.128 549.064 337.024 548.296 337.024C547.688 337.024 547.096 337.088 546.52 337.216C545.944 337.344 545.424 337.504 544.96 337.696C544.752 337.552 544.576 337.336 544.432 337.048C544.288 336.744 544.216 336.432 544.216 336.112C544.216 335.696 544.312 335.368 544.504 335.128C544.712 334.872 545.024 334.656 545.44 334.48C545.904 334.304 546.448 334.176 547.072 334.096C547.712 334.016 548.312 333.976 548.872 333.976ZM556.623 340.168C556.623 339.112 556.783 338.2 557.103 337.432C557.423 336.648 557.863 336 558.423 335.488C558.999 334.976 559.663 334.6 560.415 334.36C561.183 334.104 562.007 333.976 562.887 333.976C563.207 333.976 563.519 334.008 563.823 334.072C564.127 334.12 564.375 334.184 564.567 334.264V330.376C564.727 330.328 564.983 330.28 565.335 330.232C565.687 330.168 566.047 330.136 566.415 330.136C566.767 330.136 567.079 330.16 567.351 330.208C567.639 330.256 567.879 330.352 568.071 330.496C568.263 330.64 568.407 330.84 568.503 331.096C568.599 331.336 568.647 331.656 568.647 332.056V343.432C568.647 344.184 568.295 344.784 567.591 345.232C567.127 345.536 566.527 345.8 565.791 346.024C565.055 346.264 564.207 346.384 563.247 346.384C562.207 346.384 561.271 346.24 560.439 345.952C559.623 345.664 558.927 345.248 558.351 344.704C557.791 344.16 557.359 343.512 557.055 342.76C556.767 341.992 556.623 341.128 556.623 340.168ZM563.439 337.168C562.575 337.168 561.911 337.416 561.447 337.912C560.983 338.408 560.751 339.16 560.751 340.168C560.751 341.16 560.967 341.912 561.399 342.424C561.831 342.92 562.455 343.168 563.271 343.168C563.559 343.168 563.815 343.128 564.039 343.048C564.279 342.952 564.463 342.848 564.591 342.736V337.456C564.271 337.264 563.887 337.168 563.439 337.168ZM577.357 346.384C576.413 346.384 575.533 346.256 574.717 346C573.917 345.728 573.213 345.328 572.605 344.8C572.013 344.272 571.541 343.608 571.189 342.808C570.853 342.008 570.685 341.072 570.685 340C570.685 338.944 570.853 338.04 571.189 337.288C571.541 336.52 571.997 335.896 572.557 335.416C573.117 334.92 573.757 334.56 574.477 334.336C575.197 334.096 575.933 333.976 576.685 333.976C577.533 333.976 578.301 334.104 578.989 334.36C579.693 334.616 580.293 334.968 580.789 335.416C581.301 335.864 581.693 336.4 581.965 337.024C582.253 337.648 582.397 338.328 582.397 339.064C582.397 339.608 582.245 340.024 581.941 340.312C581.637 340.6 581.213 340.784 580.669 340.864L574.741 341.752C574.917 342.28 575.277 342.68 575.821 342.952C576.365 343.208 576.989 343.336 577.693 343.336C578.349 343.336 578.965 343.256 579.541 343.096C580.133 342.92 580.613 342.72 580.981 342.496C581.237 342.656 581.453 342.88 581.629 343.168C581.805 343.456 581.893 343.76 581.893 344.08C581.893 344.8 581.557 345.336 580.885 345.688C580.373 345.96 579.797 346.144 579.157 346.24C578.517 346.336 577.917 346.384 577.357 346.384ZM576.685 336.952C576.301 336.952 575.965 337.016 575.677 337.144C575.405 337.272 575.181 337.44 575.005 337.648C574.829 337.84 574.693 338.064 574.597 338.32C574.517 338.56 574.469 338.808 574.453 339.064L578.557 338.392C578.509 338.072 578.333 337.752 578.029 337.432C577.725 337.112 577.277 336.952 576.685 336.952ZM595.334 346.384C594.39 346.384 593.51 346.256 592.694 346C591.894 345.728 591.19 345.328 590.582 344.8C589.99 344.272 589.518 343.608 589.166 342.808C588.83 342.008 588.662 341.072 588.662 340C588.662 338.944 588.83 338.04 589.166 337.288C589.518 336.52 589.974 335.896 590.534 335.416C591.094 334.92 591.734 334.56 592.454 334.336C593.174 334.096 593.91 333.976 594.662 333.976C595.51 333.976 596.278 334.104 596.966 334.36C597.67 334.616 598.27 334.968 598.766 335.416C599.278 335.864 599.67 336.4 599.942 337.024C600.23 337.648 600.374 338.328 600.374 339.064C600.374 339.608 600.222 340.024 599.918 340.312C599.614 340.6 599.19 340.784 598.646 340.864L592.718 341.752C592.894 342.28 593.254 342.68 593.798 342.952C594.342 343.208 594.966 343.336 595.67 343.336C596.326 343.336 596.942 343.256 597.518 343.096C598.11 342.92 598.59 342.72 598.958 342.496C599.214 342.656 599.43 342.88 599.606 343.168C599.782 343.456 599.87 343.76 599.87 344.08C599.87 344.8 599.534 345.336 598.862 345.688C598.35 345.96 597.774 346.144 597.134 346.24C596.494 346.336 595.894 346.384 595.334 346.384ZM594.662 336.952C594.278 336.952 593.942 337.016 593.654 337.144C593.382 337.272 593.158 337.44 592.982 337.648C592.806 337.84 592.67 338.064 592.574 338.32C592.494 338.56 592.446 338.808 592.43 339.064L596.534 338.392C596.486 338.072 596.31 337.752 596.006 337.432C595.702 337.112 595.254 336.952 594.662 336.952ZM607.33 343.408C607.602 343.408 607.898 343.384 608.218 343.336C608.554 343.272 608.802 343.192 608.962 343.096V341.176L607.234 341.32C606.786 341.352 606.418 341.448 606.13 341.608C605.842 341.768 605.698 342.008 605.698 342.328C605.698 342.648 605.818 342.912 606.058 343.12C606.314 343.312 606.738 343.408 607.33 343.408ZM607.138 333.976C608.002 333.976 608.786 334.064 609.49 334.24C610.21 334.416 610.818 334.688 611.314 335.056C611.826 335.408 612.218 335.864 612.49 336.424C612.762 336.968 612.898 337.616 612.898 338.368V343.744C612.898 344.16 612.778 344.504 612.538 344.776C612.314 345.032 612.042 345.256 611.722 345.448C610.682 346.072 609.218 346.384 607.33 346.384C606.482 346.384 605.714 346.304 605.026 346.144C604.354 345.984 603.77 345.744 603.274 345.424C602.794 345.104 602.418 344.696 602.146 344.2C601.89 343.704 601.762 343.128 601.762 342.472C601.762 341.368 602.09 340.52 602.746 339.928C603.402 339.336 604.418 338.968 605.794 338.824L608.938 338.488V338.32C608.938 337.856 608.73 337.528 608.314 337.336C607.914 337.128 607.33 337.024 606.562 337.024C605.954 337.024 605.362 337.088 604.786 337.216C604.21 337.344 603.69 337.504 603.226 337.696C603.018 337.552 602.842 337.336 602.698 337.048C602.554 336.744 602.482 336.432 602.482 336.112C602.482 335.696 602.578 335.368 602.77 335.128C602.978 334.872 603.29 334.656 603.706 334.48C604.17 334.304 604.714 334.176 605.338 334.096C605.978 334.016 606.578 333.976 607.138 333.976ZM625.233 342.52C625.233 343.736 624.777 344.688 623.865 345.376C622.953 346.064 621.609 346.408 619.833 346.408C619.161 346.408 618.537 346.36 617.961 346.264C617.385 346.168 616.889 346.024 616.473 345.832C616.073 345.624 615.753 345.368 615.513 345.064C615.289 344.76 615.177 344.4 615.177 343.984C615.177 343.6 615.257 343.28 615.417 343.024C615.577 342.752 615.769 342.528 615.993 342.352C616.457 342.608 616.985 342.84 617.577 343.048C618.185 343.24 618.881 343.336 619.665 343.336C620.161 343.336 620.537 343.264 620.793 343.12C621.065 342.976 621.201 342.784 621.201 342.544C621.201 342.32 621.105 342.144 620.913 342.016C620.721 341.888 620.401 341.784 619.953 341.704L619.233 341.56C617.841 341.288 616.801 340.864 616.113 340.288C615.441 339.696 615.105 338.856 615.105 337.768C615.105 337.176 615.233 336.64 615.489 336.16C615.745 335.68 616.105 335.28 616.569 334.96C617.033 334.64 617.585 334.392 618.225 334.216C618.881 334.04 619.601 333.952 620.385 333.952C620.977 333.952 621.529 334 622.041 334.096C622.569 334.176 623.025 334.304 623.409 334.48C623.793 334.656 624.097 334.888 624.321 335.176C624.545 335.448 624.657 335.776 624.657 336.16C624.657 336.528 624.585 336.848 624.441 337.12C624.313 337.376 624.145 337.592 623.937 337.768C623.809 337.688 623.617 337.608 623.361 337.528C623.105 337.432 622.825 337.352 622.521 337.288C622.217 337.208 621.905 337.144 621.585 337.096C621.281 337.048 621.001 337.024 620.745 337.024C620.217 337.024 619.809 337.088 619.521 337.216C619.233 337.328 619.089 337.512 619.089 337.768C619.089 337.944 619.169 338.088 619.329 338.2C619.489 338.312 619.793 338.416 620.241 338.512L620.985 338.68C622.521 339.032 623.609 339.52 624.249 340.144C624.905 340.752 625.233 341.544 625.233 342.52ZM628.677 343.024C628.501 342.624 628.309 342.176 628.101 341.68C627.909 341.184 627.701 340.616 627.477 339.976C627.269 339.336 627.045 338.608 626.805 337.792C626.581 336.96 626.341 336.008 626.085 334.936C626.309 334.712 626.605 334.52 626.973 334.36C627.357 334.184 627.773 334.096 628.221 334.096C628.781 334.096 629.245 334.216 629.613 334.456C629.981 334.68 630.253 335.112 630.429 335.752L632.325 342.352H632.421C632.613 341.808 632.797 341.216 632.973 340.576C633.165 339.936 633.349 339.28 633.525 338.608C633.701 337.92 633.861 337.24 634.005 336.568C634.165 335.88 634.301 335.208 634.413 334.552C634.989 334.248 635.621 334.096 636.309 334.096C636.869 334.096 637.333 334.216 637.701 334.456C638.069 334.696 638.253 335.112 638.253 335.704C638.253 336.136 638.197 336.64 638.085 337.216C637.973 337.776 637.821 338.376 637.629 339.016C637.453 339.656 637.237 340.32 636.981 341.008C636.741 341.68 636.485 342.344 636.213 343C635.941 343.656 635.661 344.28 635.373 344.872C635.085 345.448 634.805 345.968 634.533 346.432C634.085 347.216 633.669 347.856 633.285 348.352C632.901 348.848 632.533 349.232 632.181 349.504C631.829 349.792 631.477 349.984 631.125 350.08C630.773 350.192 630.405 350.248 630.021 350.248C629.349 350.248 628.805 350.048 628.389 349.648C627.973 349.248 627.725 348.728 627.645 348.088C628.157 347.688 628.669 347.24 629.181 346.744C629.693 346.264 630.157 345.768 630.573 345.256C630.301 345.176 630.005 344.992 629.685 344.704C629.381 344.4 629.045 343.84 628.677 343.024Z" fill="white"/>
</svg>
